<svg width="12" height="10" viewBox="0 0 12 10" fill="none" xmlns="http://www.w3.org/2000/svg">
<g clip-path="url(#clip0_206_519)">
<path d="M5.62499 2.8125C5.41798 2.81574 5.21251 2.84862 5.01483 2.91016C5.10627 3.07096 5.15495 3.25252 5.15624 3.4375C5.15624 3.58113 5.12795 3.72336 5.07298 3.85606C5.01802 3.98876 4.93745 4.10933 4.83589 4.2109C4.73432 4.31246 4.61375 4.39303 4.48105 4.44799C4.34835 4.50296 4.20612 4.53125 4.06249 4.53125C3.87751 4.52997 3.69595 4.48128 3.53514 4.38984C3.40828 4.82984 3.42306 5.29861 3.57741 5.72973C3.73176 6.16086 4.01784 6.5325 4.39514 6.792C4.77244 7.05151 5.22182 7.18572 5.67963 7.17563C6.13744 7.16555 6.58048 7.01167 6.94598 6.7358C7.31148 6.45993 7.58092 6.07606 7.71613 5.63855C7.85134 5.20104 7.84547 4.73208 7.69934 4.2981C7.55322 3.86411 7.27425 3.48711 6.90196 3.22048C6.52966 2.95385 6.08291 2.81112 5.62499 2.8125ZM11.182 4.71484C10.1228 2.64824 8.02596 1.25 5.62499 1.25C3.22401 1.25 1.12655 2.64922 0.0679581 4.71504C0.0232787 4.80342 0 4.90107 0 5.0001C0 5.09913 0.0232787 5.19678 0.0679581 5.28516C1.12714 7.35176 3.22401 8.75 5.62499 8.75C8.02596 8.75 10.1234 7.35078 11.182 5.28496C11.2267 5.19658 11.25 5.09893 11.25 4.9999C11.25 4.90087 11.2267 4.80322 11.182 4.71484ZM5.62499 7.8125C3.69823 7.8125 1.93182 6.73828 0.977919 5C1.93182 3.26172 3.69804 2.1875 5.62499 2.1875C7.55194 2.1875 9.31815 3.26172 10.2721 5C9.31835 6.73828 7.55194 7.8125 5.62499 7.8125Z" fill="#767676"/>
</g>
<defs>
<clipPath id="clip0_206_519">
<rect width="11.25" height="10" fill="white"/>
</clipPath>
</defs>
</svg>
