<svg width="16" height="13" viewBox="0 0 16 13" fill="none" xmlns="http://www.w3.org/2000/svg">
<path d="M0.571429 3.05541H15.4286C15.7442 3.05541 16 2.84786 16 2.59181V1.43283C16 1.17678 15.7442 0.969238 15.4286 0.969238H0.571429C0.255821 0.969238 0 1.17678 0 1.43283V2.59181C0 2.84786 0.255821 3.05541 0.571429 3.05541ZM0.571429 7.69134H15.4286C15.7442 7.69134 16 7.48379 16 7.22774V6.06876C16 5.81271 15.7442 5.60517 15.4286 5.60517H0.571429C0.255821 5.60517 0 5.81271 0 6.06876V7.22774C0 7.48379 0.255821 7.69134 0.571429 7.69134ZM0.571429 12.3273H15.4286C15.7442 12.3273 16 12.1197 16 11.8637V10.7047C16 10.4486 15.7442 10.2411 15.4286 10.2411H0.571429C0.255821 10.2411 0 10.4486 0 10.7047V11.8637C0 12.1197 0.255821 12.3273 0.571429 12.3273Z" fill="#767676"/>
</svg>
